<?xml version="1.0" encoding="UTF-8" standalone="no"?>
<svg
   xmlns:dc="http://purl.org/dc/elements/1.1/"
   xmlns:cc="http://creativecommons.org/ns#"
   xmlns:rdf="http://www.w3.org/1999/02/22-rdf-syntax-ns#"
   xmlns:svg="http://www.w3.org/2000/svg"
   xmlns="http://www.w3.org/2000/svg"
   height="128.37016"
   width="729.67029"
   xml:space="preserve"
   viewBox="0 0 729.67027 128.37017"
   y="0px"
   x="0px"
   id="Capa_1"
   version="1.1"><metadata
   id="metadata167"><rdf:RDF><cc:Work
       rdf:about=""><dc:format>image/svg+xml</dc:format><dc:type
         rdf:resource="http://purl.org/dc/dcmitype/StillImage" /><dc:title></dc:title></cc:Work></rdf:RDF></metadata><defs
   id="defs165" />
<style
   id="style135"
   type="text/css">
	.st0{fill-rule:evenodd;clip-rule:evenodd;}
</style>
<path
   style="clip-rule:evenodd;fill-rule:evenodd"
   d="m 160.97027,6.3701652 c 0,0 -25.2,-0.9 -50.7,2.8 0,0 -2.3,-0.8 -5.2,-0.2 -2.9,0.6 -3.7,-3.8 -3.7,-3.8 0,0 -0.6,0.6 -0.8,1.7 -0.3,1.2 -5.200001,-8.6 -19.200001,-6.60000002 0,0 -4.3,0.80000002 -7.2,0.2 0,0 0.2,1.40000002 2,1.80000002 0,0 -5.2,0.9 -9.5,6.5 -4.5,5.4999998 -9.5,7.7999998 -9.5,7.7999998 0,0 1.1,0.9 3.1,0.8 -12.3,9.2 -62.3999998,6.1 -60.19999979,58.6 0,0 1.09999999,-0.6 1.69999999,-2.5 0.8,8.1 3.7,16.4 8.1,22.9 -1.7,7.700005 -3.8,14.400005 -6.8,16.400005 0,0 1.8,0.2 2.8,-0.3 0,0 -2.8,5.8 -0.3,9.4 2.6,3.7 14.2999998,3.4 16.2999998,6.5 0,0 1.4,-1.4 1.1,-3.2 0,0 3.8,-0.9 7.4,0.3 3.4,1.1 5.7,0.9 6.9,-0.3 0,0 2.2,0 2.9,0.9 0,0 -0.2,-2.2 -2.6,-2.8 0,0 -0.2,-3.2 -4.8,-3.2 -4.5,0.2 -15.7,2.2 -17.7,-4.1 -0.9,-2.9 0.5,-6.9 2.9,-10.9 2.9,2 6.3,3.4 9.8,3.8 6.1,0.6 11.4,0 15.2,-1.1 2.3,5.4 2.9,10.6 2.6,11.8 0,0 1.1,-0.3 1.7,-2 0,0 -0.6,6.8 2.3,7.8 2.9,1.1 9.8,-0.5 14.1,0.3 4.5,0.8 6,0.9 7.5,0 0,0 1.8,0.3 2.3,1.1 0,0 0.5,-1.8 -1.4,-2.6 0,0 2.2,-0.5 4,-0.2 2,0.5 4,0.9 4.5,-0.6 0,0 1.8,0 2.9,0.6 0,0 -1.4,-2.6 -3.5,-2.9 0,0 0,-1.5 -2.8,-1.4 -2.6,0.2 -16.6,2 -19.1,-1.1 -1.2,-1.5 -4.5,-6.5 -6,-12.4 11.7,-4.3 22.6,-17.700005 22.6,-17.700005 0.5,1.5 2,1.7 2,1.7 -0.2,-15.5 8.3,-24.9 10,-36.7 0,0 0.3,2.2 1.5,2.5 -1.5,-20.1 7.4,-16.9 12.300001,-28.3 0,0 0.2,2.2 0.9,2.8 0,0 0,-4.1 6.1,-8.6 0,0 3.5,-0.9 5.8,-3.8 0,0 15.1,-5.7 29.4,-7.4 14.4,-1.7999998 17.6,-2.3999998 18.3,-4.2999998 z"
   class="st0"
   id="XMLID_16_" />
<g
   transform="translate(-60.929731,-199.02983)"
   id="g160">
	<path
   id="path138"
   d="M 258.8,321.3 V 287 c 0,-3.5 -0.8,-6.3 -2.4,-8.4 -1.6,-2.1 -3.8,-3.2 -6.4,-3.2 -2.8,0 -5,1.2 -6.9,3.5 -1.8,2.3 -2.7,5.2 -2.7,8.6 v 33.9 h -15 v -34.1 c 0,-2.3 -0.2,-4.2 -0.5,-5.6 -0.3,-1.5 -0.8,-2.6 -1.6,-3.5 -0.7,-0.8 -1.7,-1.4 -2.8,-1.8 -1.2,-0.3 -2.5,-0.5 -4.1,-0.5 -6.1,0 -9.1,3.7 -9.1,11.1 v 34.4 h -15 v -56.7 h 14 v 8.3 c 1.9,-3.8 4.2,-6.3 6.9,-7.7 2.7,-1.4 5.9,-2.1 9.7,-2.1 1.9,0 3.6,0.2 5.1,0.5 1.5,0.3 2.8,0.8 4,1.6 1.2,0.7 2.3,1.7 3.4,2.8 1.1,1.2 2.1,2.5 3.2,4.1 1.5,-3.1 3.6,-5.4 6.1,-6.9 2.5,-1.4 5.6,-2.1 9.2,-2.1 2.8,0 5.5,0.5 7.8,1.4 2.4,1 4.4,2.3 6.1,4 1.7,1.7 3,3.7 4,6 1,2.3 1.4,4.8 1.4,7.4 v 39.3 z" />
	<path
   id="path140"
   d="m 307.3,322.8 c -4.6,0 -8.7,-0.7 -12.3,-2.2 -3.6,-1.5 -6.7,-3.5 -9.2,-6.1 -2.5,-2.6 -4.4,-5.8 -5.7,-9.4 -1.3,-3.7 -2,-7.7 -2,-12.1 0,-4.5 0.7,-8.5 2,-12.2 1.3,-3.7 3.3,-6.8 5.8,-9.4 2.5,-2.6 5.6,-4.6 9.2,-6 3.6,-1.4 7.6,-2.1 12.1,-2.1 4.5,0 8.4,0.7 12,2.1 3.5,1.4 6.5,3.4 9,6 2.5,2.6 4.4,5.7 5.8,9.4 1.3,3.7 2,7.8 2,12.3 0,4.5 -0.7,8.6 -2,12.3 -1.3,3.6 -3.3,6.8 -5.8,9.4 -2.5,2.6 -5.5,4.6 -9.1,6 -3.5,1.3 -7.4,2 -11.8,2 z m 0,-12.6 c 9.1,0 13.7,-5.8 13.7,-17.3 0,-11.4 -4.6,-17.2 -13.7,-17.2 -9.1,0 -13.7,5.7 -13.7,17.2 0,11.6 4.6,17.3 13.7,17.3 z" />
	<path
   id="path142"
   d="M 377.2,321.3 V 287 c 0,-4.4 -0.7,-7.3 -2.2,-8.9 -1.5,-1.5 -4,-2.3 -7.5,-2.3 -7.8,0 -11.6,4.3 -11.6,13 v 32.5 h -15 v -56.7 h 14.3 v 8.3 c 1.8,-3.2 4.1,-5.7 7,-7.3 2.9,-1.6 6.7,-2.5 11.3,-2.5 2.7,0 5.2,0.4 7.5,1.2 2.3,0.8 4.3,2 5.9,3.6 1.6,1.6 3,3.6 3.9,5.9 1,2.3 1.4,5 1.4,8.1 v 39.3 h -15 z" />
	<path
   id="path144"
   d="m 398.6,257.8 v -13.9 h 15 v 13.9 z m 0,63.5 v -56.7 h 15 v 56.7 z" />
	<path
   id="path146"
   d="m 452,284 h 14 v 16.1 c 0,3 -0.4,5.9 -1.3,8.6 -0.9,2.7 -2.3,5.1 -4.1,7.3 -1.9,2.1 -4.3,3.8 -7.1,5 -2.9,1.2 -6.3,1.8 -10.3,1.8 -4.1,0 -7.7,-0.6 -10.6,-1.8 -2.9,-1.2 -5.3,-2.9 -7.2,-5 -1.9,-2.1 -3.2,-4.5 -4.1,-7.3 -0.8,-2.8 -1.3,-5.7 -1.3,-8.8 v -50.7 h 14.7 v 15.3 H 466 v 10.6 h -31.3 v 23.3 c 0,3.6 0.7,6.4 2,8.3 1.3,2 3.6,2.9 6.6,2.9 3,0 5.2,-1 6.6,-2.9 1.4,-1.9 2.1,-4.6 2.1,-8.2 z" />
	<path
   id="path148"
   d="m 505.5,281.8 c -0.4,-2.6 -1.4,-4.5 -2.9,-5.7 -1.6,-1.2 -4,-1.8 -7.2,-1.8 -3.1,0 -5.4,0.4 -7,1.1 -1.6,0.7 -2.4,2 -2.4,3.7 0,1.5 0.8,2.8 2.4,3.7 1.6,0.9 3.9,1.8 6.9,2.6 4.9,1.4 9.1,2.6 12.4,3.5 3.4,1 6.1,2.1 8.1,3.4 2,1.3 3.5,2.9 4.4,4.9 0.9,2 1.3,4.6 1.3,7.9 0,5.1 -2.1,9.3 -6.3,12.6 -4.2,3.3 -10.5,5 -18.8,5 -4.1,0 -7.8,-0.5 -11.1,-1.4 -3.3,-0.9 -6.1,-2.2 -8.5,-4 -2.3,-1.7 -4.1,-3.8 -5.4,-6.2 -1.3,-2.4 -1.9,-5.1 -2,-8.1 h 15.4 c 0,2.7 1.1,4.8 3.2,6.2 2.1,1.5 4.9,2.2 8.2,2.2 2.8,0 5.3,-0.4 7.3,-1.3 2,-0.9 3.1,-2.2 3.1,-4.1 0,-2.1 -0.7,-3.6 -2.2,-4.5 -1.5,-0.9 -3.8,-1.7 -6.9,-2.4 -5.5,-1.2 -10,-2.5 -13.4,-3.9 -3.4,-1.3 -6,-2.8 -7.9,-4.4 -1.9,-1.6 -3.1,-3.4 -3.8,-5.3 -0.7,-1.9 -1,-4.1 -1,-6.4 0,-2.1 0.4,-4.2 1.3,-6.1 0.9,-1.9 2.3,-3.6 4.2,-5.1 1.9,-1.5 4.4,-2.6 7.5,-3.5 3.1,-0.9 6.8,-1.3 11.3,-1.3 8.1,0 14.1,1.7 17.8,5 3.8,3.3 5.8,7.9 6.2,13.7 z" />
	<path
   id="path150"
   d="m 557.3,284 h 13.9 v 16.1 c 0,3 -0.4,5.9 -1.3,8.6 -0.9,2.7 -2.3,5.1 -4.1,7.3 -1.9,2.1 -4.3,3.8 -7.1,5 -2.9,1.2 -6.3,1.8 -10.3,1.8 -4.1,0 -7.7,-0.6 -10.6,-1.8 -2.9,-1.2 -5.3,-2.9 -7.2,-5 -1.9,-2.1 -3.2,-4.5 -4.1,-7.3 -0.8,-2.8 -1.3,-5.7 -1.3,-8.8 v -50.7 h 14.7 v 15.3 h 31.3 v 10.6 h -31.3 v 23.3 c 0,3.6 0.7,6.4 2,8.3 1.3,2 3.5,2.9 6.6,2.9 3,0 5.2,-1 6.6,-2.9 1.4,-1.9 2.1,-4.6 2.1,-8.2 V 284 Z" />
	<path
   id="path152"
   d="m 612.1,321.3 c -0.5,-1.5 -0.8,-3.1 -0.9,-5.1 -1.8,2 -4.1,3.6 -7,4.8 -2.9,1.2 -6.3,1.8 -10.1,1.8 -6.5,0 -11.3,-1.4 -14.3,-4.3 -3,-2.9 -4.5,-6.6 -4.5,-11.2 0,-4.1 0.7,-7.3 2,-9.7 1.3,-2.4 3.1,-4.3 5.4,-5.7 2.3,-1.4 5,-2.4 8.2,-3.1 3.2,-0.7 6.7,-1.2 10.4,-1.8 3.8,-0.5 6.3,-1.2 7.6,-2.1 1.3,-0.9 2,-2.3 2,-4.3 0,-1.8 -0.9,-3.3 -2.6,-4.3 -1.7,-1 -4,-1.6 -7,-1.6 -3.5,0 -5.9,0.8 -7.4,2.3 -1.5,1.5 -2.4,3.6 -2.8,6.1 H 577 c 0.1,-2.9 0.6,-5.6 1.4,-8.1 0.9,-2.5 2.3,-4.6 4.3,-6.3 2,-1.8 4.5,-3.1 7.7,-4.1 3.1,-1 7,-1.4 11.5,-1.4 4.5,0 8.2,0.5 11.3,1.5 3.1,1 5.6,2.4 7.5,4.3 1.9,1.9 3.2,4.2 4.1,7 0.8,2.8 1.3,6 1.3,9.5 v 35.8 z M 611,293.5 c -0.8,0.8 -1.9,1.4 -3.3,1.8 -1.5,0.5 -3.6,1 -6.3,1.5 -4.3,0.8 -7.3,1.9 -8.9,3.2 -1.6,1.3 -2.4,3.2 -2.4,5.6 0,4.2 2.4,6.3 7.3,6.3 1.9,0 3.7,-0.3 5.4,-1 1.6,-0.7 3.1,-1.5 4.3,-2.6 1.2,-1.1 2.1,-2.4 2.9,-3.9 0.7,-1.5 1.1,-3.1 1.1,-4.8 z" />
	<path
   id="path154"
   d="M 664.1,284 H 678 v 16.1 c 0,3 -0.4,5.9 -1.3,8.6 -0.9,2.7 -2.3,5.1 -4.1,7.3 -1.9,2.1 -4.3,3.8 -7.1,5 -2.9,1.2 -6.3,1.8 -10.3,1.8 -4.1,0 -7.7,-0.6 -10.6,-1.8 -2.9,-1.2 -5.3,-2.9 -7.2,-5 -1.9,-2.1 -3.2,-4.5 -4.1,-7.3 -0.8,-2.8 -1.3,-5.7 -1.3,-8.8 v -50.7 h 14.7 v 15.3 H 678 v 10.6 h -31.3 v 23.3 c 0,3.6 0.7,6.4 2,8.3 1.3,2 3.5,2.9 6.6,2.9 3,0 5.2,-1 6.6,-2.9 1.4,-1.9 2.1,-4.6 2.1,-8.2 V 284 Z" />
	<path
   id="path156"
   d="m 720.3,321.3 v -7.9 c -3.8,6.3 -9.7,9.4 -17.6,9.4 -2.8,0 -5.4,-0.5 -7.8,-1.5 -2.3,-1 -4.4,-2.4 -6,-4.3 -1.7,-1.8 -3,-4 -4,-6.6 -1,-2.5 -1.4,-5.4 -1.4,-8.5 v -37.3 h 15 v 35 c 0,7.1 3.2,10.6 9.6,10.6 3.8,0 6.7,-1.2 8.7,-3.6 2,-2.4 2.9,-5.5 2.9,-9.3 v -32.7 h 14.9 v 56.7 z" />
	<path
   id="path158"
   d="m 774.6,281.8 c -0.4,-2.6 -1.4,-4.5 -2.9,-5.7 -1.6,-1.2 -4,-1.8 -7.2,-1.8 -3.1,0 -5.4,0.4 -7,1.1 -1.6,0.7 -2.4,2 -2.4,3.7 0,1.5 0.8,2.8 2.4,3.7 1.6,0.9 3.9,1.8 6.9,2.6 4.9,1.4 9.1,2.6 12.4,3.5 3.4,1 6.1,2.1 8.1,3.4 2,1.3 3.5,2.9 4.4,4.9 0.9,2 1.3,4.6 1.3,7.9 0,5.1 -2.1,9.3 -6.3,12.6 -4.2,3.3 -10.5,5 -18.8,5 -4.1,0 -7.8,-0.5 -11.1,-1.4 -3.3,-0.9 -6.1,-2.2 -8.5,-4 -2.3,-1.7 -4.1,-3.8 -5.4,-6.2 -1.3,-2.4 -1.9,-5.1 -2,-8.1 h 15.4 c 0,2.7 1.1,4.8 3.2,6.2 2.1,1.5 4.9,2.2 8.2,2.2 2.8,0 5.3,-0.4 7.3,-1.3 2,-0.9 3.1,-2.2 3.1,-4.1 0,-2.1 -0.7,-3.6 -2.2,-4.5 -1.5,-0.9 -3.8,-1.7 -6.9,-2.4 -5.5,-1.2 -10,-2.5 -13.4,-3.9 -3.4,-1.3 -6,-2.8 -7.9,-4.4 -1.9,-1.6 -3.1,-3.4 -3.8,-5.3 -0.7,-1.9 -1,-4.1 -1,-6.4 0,-2.1 0.4,-4.2 1.3,-6.1 0.9,-1.9 2.3,-3.6 4.2,-5.1 1.9,-1.5 4.4,-2.6 7.5,-3.5 3.1,-0.9 6.8,-1.3 11.3,-1.3 8.1,0 14.1,1.7 17.8,5 3.8,3.3 5.8,7.9 6.2,13.7 z" />
</g>
</svg>